<mxfile host="app.diagrams.net" modified="2023-11-23T14:39:01.335Z" agent="Mozilla/5.0 (Macintosh; Intel Mac OS X 10_15_7) AppleWebKit/537.36 (KHTML, like Gecko) Chrome/119.0.0.0 Safari/537.36" version="22.1.3" etag="b3yOiWWuVb7Xn-meHFcF" type="github">
  <diagram name="第 1 页" id="MYth6btTjIJT9gInHdEy">
    <mxGraphModel>
      <root>
        <mxCell id="0" />
        <mxCell id="1" parent="0" />
      </root>
    </mxGraphModel>
  </diagram>
</mxfile>
